<?xml version="1.0" encoding="UTF-8" standalone="no"?>
<svg
   xmlns:dc="http://purl.org/dc/elements/1.1/"
   xmlns:cc="http://creativecommons.org/ns#"
   xmlns:rdf="http://www.w3.org/1999/02/22-rdf-syntax-ns#"
   xmlns:svg="http://www.w3.org/2000/svg"
   xmlns="http://www.w3.org/2000/svg"
   viewBox="0 0 511.74667 247.18668"
   height="247.18668"
   width="511.74667"
   xml:space="preserve"
   id="svg2"
   version="1.1"><metadata
     id="metadata8"><rdf:RDF><cc:Work
         rdf:about=""><dc:format>image/svg+xml</dc:format><dc:type
           rdf:resource="http://purl.org/dc/dcmitype/StillImage" /></cc:Work></rdf:RDF></metadata><defs
     id="defs6" /><g
     transform="matrix(1.3333333,0,0,-1.3333333,0,247.18667)"
     id="g10"><g
       transform="scale(0.1)"
       id="g12"><path
         id="path14"
         style="fill:#2350a9;fill-opacity:1;fill-rule:nonzero;stroke:none"
         d="m 411.715,471.43 30.937,3.121 c 1.86,-10.43 5.641,-18.082 11.332,-22.981 5.696,-4.89 13.375,-7.332 23.043,-7.332 10.239,0 17.953,2.172 23.149,6.512 5.191,4.352 7.789,9.43 7.789,15.25 0,3.73 -1.09,6.898 -3.27,9.531 -2.175,2.617 -5.98,4.891 -11.41,6.84 -3.715,1.27 -12.176,3.551 -25.39,6.828 -17,4.199 -28.926,9.379 -35.782,15.531 -9.64,8.641 -14.461,19.18 -14.461,31.622 0,7.988 2.27,15.476 6.817,22.437 4.547,6.973 11.097,12.281 19.652,15.922 8.555,3.641 18.887,5.469 30.984,5.469 19.762,0 34.637,-4.352 44.625,-13.032 9.989,-8.687 15.231,-20.277 15.735,-34.777 l -31.875,-1.25 c -1.363,8.098 -4.281,13.918 -8.754,17.481 -4.477,3.546 -11.188,5.328 -20.133,5.328 -9.238,0 -16.465,-1.899 -21.691,-5.7 -3.367,-2.429 -5.047,-5.691 -5.047,-9.769 0,-3.731 1.57,-6.91 4.723,-9.57 4,-3.36 13.734,-6.871 29.191,-10.5 15.457,-3.641 26.887,-7.411 34.293,-11.332 7.402,-3.911 13.199,-9.258 17.387,-16.039 4.183,-6.801 6.281,-15.18 6.281,-25.161 0,-9.058 -2.512,-17.527 -7.527,-25.429 -5.016,-7.899 -12.114,-13.77 -21.282,-17.61 -9.172,-3.84 -20.601,-5.769 -34.289,-5.769 -19.922,0 -35.222,4.629 -45.898,13.89 -10.676,9.258 -17.055,22.75 -19.129,40.489" /><path
         id="path16"
         style="fill:#2350a9;fill-opacity:1;fill-rule:nonzero;stroke:none"
         d="M 572.867,419.871 V 533.93 H 603.18 V 419.871 Z m 0,129.68 v 27.82 h 30.313 v -27.82 h -30.313" /><path
         id="path18"
         style="fill:#2350a9;fill-opacity:1;fill-rule:nonzero;stroke:none"
         d="m 744.648,419.871 h -30.312 v 58.34 c 0,12.34 -0.645,20.32 -1.93,23.937 -1.285,3.622 -3.367,6.454 -6.258,8.461 -2.89,2 -6.367,3.012 -10.429,3.012 -5.207,0 -9.879,-1.441 -14.016,-4.312 -4.14,-2.868 -6.973,-6.668 -8.504,-11.411 -1.535,-4.726 -2.301,-13.476 -2.301,-26.257 v -51.77 H 640.586 V 533.93 h 28.125 v -16.758 c 9.949,13.047 22.484,19.566 37.594,19.566 6.66,0 12.742,-1.207 18.258,-3.609 5.511,-2.399 9.679,-5.469 12.511,-9.199 2.828,-3.731 4.797,-7.961 5.91,-12.7 1.11,-4.73 1.664,-11.511 1.664,-20.332 v -71.027" /><path
         id="path20"
         style="fill:#2350a9;fill-opacity:1;fill-rule:nonzero;stroke:none"
         d="m 805.945,479.359 c 0,-12.14 2.325,-21.027 6.985,-26.66 4.652,-5.648 10.39,-8.461 17.215,-8.461 7.316,0 13.5,2.891 18.546,8.672 5.043,5.781 7.571,14.352 7.571,25.699 0,11.84 -2.418,20.641 -7.254,26.391 -4.832,5.738 -10.942,8.621 -18.328,8.621 -7.18,0 -13.098,-2.832 -17.75,-8.461 -4.66,-5.648 -6.985,-14.238 -6.985,-25.801 z m -27.183,-66.988 34.375,-3.75 c 0.574,-4.25 1.902,-7.172 3.988,-8.769 2.875,-2.282 7.406,-3.422 13.59,-3.422 7.902,0 13.836,1.179 17.793,3.539 2.652,1.582 4.672,4.121 6.039,7.633 0.933,2.519 1.398,7.128 1.398,13.867 l 0.094,16.652 c -8.934,-12.172 -20.281,-18.25 -34.043,-18.25 -15.34,0 -27.488,6.481 -36.449,19.469 -7.027,10.262 -10.535,23.039 -10.535,38.32 0,19.16 4.601,33.789 13.812,43.91 9.207,10.11 20.664,15.168 34.356,15.168 14.121,0 25.769,-6.207 34.957,-18.609 v 15.801 h 28.125 V 431.398 c 0,-13.488 -1.117,-23.57 -3.336,-30.226 -2.227,-6.684 -5.348,-11.91 -9.367,-15.711 -4.016,-3.801 -9.379,-6.781 -16.086,-8.93 -6.711,-2.152 -15.192,-3.23 -25.446,-3.23 -19.371,0 -33.109,3.34 -41.214,10.008 -8.11,6.671 -12.161,15.132 -12.161,25.382 0,1.008 0.036,2.231 0.11,3.68" /><path
         id="path22"
         style="fill:#2350a9;fill-opacity:1;fill-rule:nonzero;stroke:none"
         d="m 922.559,419.871 h 30.3125 v 157.5 H 922.559 Z" /><path
         id="path24"
         style="fill:#2350a9;fill-opacity:1;fill-rule:nonzero;stroke:none"
         d="m 1058.4,486.43 c -0.21,8.879 -2.48,15.621 -6.81,20.25 -4.32,4.621 -9.58,6.941 -15.78,6.941 -6.63,0 -12.11,-2.449 -16.43,-7.32 -4.33,-4.871 -6.45,-11.5 -6.38,-19.871 z m -1.56,-30.629 30,-5 c -3.88,-10.992 -10.01,-19.371 -18.38,-25.121 -8.37,-5.758 -18.85,-8.629 -31.42,-8.629 -19.91,0 -34.64,6.508 -44.192,19.519 -7.551,10.418 -11.321,23.571 -11.321,39.469 0,18.961 4.957,33.832 14.868,44.582 9.915,10.75 22.445,16.117 37.595,16.117 17.03,0 30.46,-5.636 40.3,-16.91 9.84,-11.289 14.54,-28.558 14.11,-51.84 h -75.93 c 0.21,-8.976 2.67,-15.957 7.37,-20.957 4.7,-4.98 10.56,-7.48 17.58,-7.48 4.77,0 8.79,1.281 12.04,3.847 3.25,2.563 5.72,6.704 7.38,12.403" /><path
         id="path26"
         style="fill:#2350a9;fill-opacity:1;fill-rule:nonzero;stroke:none"
         d="m 1187.58,419.871 v 157.5 h 116.57 v -26.57 h -84.69 v -35 h 78.75 v -26.563 h -78.75 V 446.43 h 87.81 v -26.559 h -119.69" /><path
         id="path28"
         style="fill:#2350a9;fill-opacity:1;fill-rule:nonzero;stroke:none"
         d="m 1415.61,419.871 v 17.078 c -4.17,-6.09 -9.64,-10.929 -16.43,-14.519 -6.79,-3.578 -13.95,-5.379 -21.49,-5.379 -7.69,0 -14.57,1.687 -20.68,5.058 -6.1,3.371 -10.52,8.11 -13.25,14.2 -2.73,6.101 -4.09,14.531 -4.09,25.293 v 72.328 h 30.31 v -52.461 c 0,-16.059 0.55,-25.899 1.67,-29.508 1.11,-3.641 3.13,-6.5 6.07,-8.621 2.94,-2.11 6.66,-3.16 11.18,-3.16 5.16,0 9.79,1.398 13.87,4.242 4.09,2.828 6.88,6.34 8.39,10.539 1.5,4.187 2.26,14.461 2.26,30.801 v 48.168 h 30.31 V 419.871 h -28.12" /><path
         id="path30"
         style="fill:#2350a9;fill-opacity:1;fill-rule:nonzero;stroke:none"
         d="m 1510.34,419.871 h -30.31 V 533.93 h 28.12 v -16.219 c 4.81,7.66 9.13,12.738 12.97,15.258 3.84,2.511 8.19,3.769 13.07,3.769 6.88,0 13.52,-1.91 19.9,-5.718 l -9.22,-26.411 c -5.1,3.289 -9.86,4.942 -14.24,4.942 -4.25,0 -7.84,-1.172 -10.79,-3.492 -2.95,-2.34 -5.27,-6.547 -6.96,-12.637 -1.69,-6.094 -2.54,-18.863 -2.54,-38.281 v -35.27" /><path
         id="path32"
         style="fill:#2350a9;fill-opacity:1;fill-rule:nonzero;stroke:none"
         d="m 1597.25,476.898 c 0,-11.367 2.69,-20.058 8.08,-26.097 5.39,-6.039 12.03,-9.063 19.94,-9.063 7.9,0 14.53,3.024 19.88,9.063 5.35,6.039 8.03,14.808 8.03,26.308 0,11.211 -2.68,19.852 -8.03,25.879 -5.35,6.043 -11.98,9.063 -19.88,9.063 -7.91,0 -14.55,-3.02 -19.94,-9.063 -5.39,-6.027 -8.08,-14.738 -8.08,-26.09 z m -30.94,1.622 c 0,10.058 2.47,19.8 7.42,29.218 4.94,9.41 11.94,16.602 21.01,21.563 9.06,4.961 19.19,7.437 30.37,7.437 17.27,0 31.42,-5.617 42.46,-16.867 11.03,-11.25 16.55,-25.473 16.55,-42.652 0,-17.321 -5.58,-31.688 -16.72,-43.078 -11.14,-11.391 -25.17,-17.09 -42.08,-17.09 -10.46,0 -20.44,2.379 -29.93,7.109 -9.5,4.75 -16.72,11.699 -21.66,20.871 -4.95,9.168 -7.42,20.321 -7.42,33.489" /><path
         id="path34"
         style="fill:#2350a9;fill-opacity:1;fill-rule:nonzero;stroke:none"
         d="m 1814.7,550.801 v -45 h 17.36 c 12.5,0 20.86,0.82 25.08,2.48 4.21,1.66 7.52,4.258 9.91,7.797 2.39,3.531 3.59,7.641 3.59,12.332 0,5.77 -1.68,10.531 -5.04,14.281 -3.36,3.75 -7.61,6.09 -12.75,7.028 -3.79,0.722 -11.39,1.082 -22.83,1.082 z m -31.87,-130.93 v 157.5 h 51.02 c 19.33,0 31.94,-0.801 37.81,-2.371 9.02,-2.359 16.57,-7.512 22.66,-15.43 6.09,-7.91 9.13,-18.14 9.13,-30.679 0,-9.672 -1.75,-17.789 -5.26,-24.403 -3.5,-6.578 -7.96,-11.758 -13.36,-15.519 -5.4,-3.77 -10.89,-6.25 -16.47,-7.469 -7.59,-1.512 -18.57,-2.262 -32.94,-2.262 h -20.72 v -59.367 h -31.87" /><path
         id="path36"
         style="fill:#2350a9;fill-opacity:1;fill-rule:nonzero;stroke:none"
         d="m 1998.67,474.551 c -3.87,-1.301 -9.98,-2.84 -18.34,-4.641 -8.36,-1.789 -13.83,-3.558 -16.39,-5.281 -3.94,-2.809 -5.89,-6.367 -5.89,-10.68 0,-4.25 1.56,-7.91 4.7,-11.008 3.15,-3.089 7.15,-4.64 12.02,-4.64 5.43,0 10.6,1.801 15.54,5.39 3.64,2.739 6.04,6.079 7.18,10.039 0.78,2.59 1.18,7.52 1.18,14.79 z m -40.62,24.687 -27.19,5 c 3.08,11.051 8.38,19.223 15.9,24.532 7.53,5.308 18.71,7.968 33.54,7.968 13.47,0 23.51,-1.597 30.1,-4.777 6.59,-3.211 11.24,-7.262 13.92,-12.172 2.69,-4.91 4.04,-13.937 4.04,-27.07 l -0.31,-35.297 c 0,-10.043 0.48,-17.461 1.44,-22.223 0.97,-4.769 2.78,-9.879 5.43,-15.328 h -30 c -0.8,1.969 -1.76,4.899 -2.91,8.777 -0.5,1.774 -0.86,2.93 -1.06,3.5 -5.16,-5.027 -10.67,-8.808 -16.54,-11.328 -5.87,-2.511 -12.12,-3.769 -18.78,-3.769 -11.74,0 -21,3.199 -27.76,9.578 -6.76,6.391 -10.14,14.473 -10.14,24.23 0,6.45 1.54,12.211 4.61,17.27 3.09,5.062 7.41,8.941 12.96,11.633 5.56,2.679 13.57,5.047 24.03,7.058 14.11,2.649 23.89,5.121 29.34,7.418 v 3.051 c 0,5.883 -1.44,10.07 -4.32,12.582 -2.89,2.5 -8.32,3.75 -16.32,3.75 -5.4,0 -9.61,-1.07 -12.64,-3.191 -3.03,-2.129 -5.48,-5.86 -7.34,-11.192" /><path
         id="path38"
         style="fill:#2350a9;fill-opacity:1;fill-rule:nonzero;stroke:none"
         d="m 2050.12,533.93 h 32.18 l 27.35,-80.981 26.72,80.981 h 31.25 l -40.2,-109.782 -7.34,-20.046 c -2.66,-6.68 -5.19,-11.774 -7.59,-15.293 -2.4,-3.508 -5.17,-6.368 -8.29,-8.547 -3.13,-2.192 -6.95,-3.91 -11.51,-5.121 -4.56,-1.231 -9.71,-1.84 -15.45,-1.84 -5.81,0 -11.53,0.609 -17.12,1.828 l -2.82,23.652 c 4.75,-0.953 9.05,-1.41 12.86,-1.41 7.07,0 12.28,2.09 15.67,6.25 3.39,4.18 5.98,9.488 7.78,15.93 l -43.49,114.379" /><path
         id="path40"
         style="fill:#2350a9;fill-opacity:1;fill-rule:nonzero;stroke:none"
         d="m 2191.26,533.93 h 27.81 v -15.578 c 9.99,12.257 21.88,18.386 35.68,18.386 7.32,0 13.68,-1.5 19.07,-4.508 5.39,-3.019 9.81,-7.582 13.25,-13.671 5.02,6.089 10.45,10.652 16.25,13.671 5.82,3.008 12.01,4.508 18.61,4.508 8.4,0 15.5,-1.699 21.31,-5.117 5.81,-3.391 10.16,-8.402 13.03,-15.012 2.07,-4.871 3.11,-12.757 3.11,-23.668 v -73.07 h -30.31 v 65.328 c 0,11.34 -1.04,18.653 -3.11,21.949 -2.8,4.321 -7.09,6.473 -12.88,6.473 -4.23,0 -8.21,-1.293 -11.93,-3.883 -3.72,-2.59 -6.4,-6.367 -8.04,-11.359 -1.65,-4.981 -2.48,-12.859 -2.48,-23.617 v -54.891 h -30.31 V 482.5 c 0,11.141 -0.53,18.301 -1.61,21.539 -1.07,3.231 -2.73,5.633 -4.99,7.211 -2.26,1.57 -5.31,2.371 -9.18,2.371 -4.65,0 -8.84,-1.262 -12.56,-3.769 -3.72,-2.512 -6.38,-6.141 -8,-10.872 -1.61,-4.742 -2.41,-12.589 -2.41,-23.57 v -55.539 h -30.31 V 533.93" /><path
         id="path42"
         style="fill:#2350a9;fill-opacity:1;fill-rule:nonzero;stroke:none"
         d="m 2463.79,486.43 c -0.22,8.879 -2.48,15.621 -6.82,20.25 -4.31,4.621 -9.58,6.941 -15.78,6.941 -6.62,0 -12.11,-2.449 -16.42,-7.32 -4.33,-4.871 -6.45,-11.5 -6.38,-19.871 z m -1.56,-30.629 30,-5 c -3.89,-10.992 -10.01,-19.371 -18.38,-25.121 -8.38,-5.758 -18.85,-8.629 -31.43,-8.629 -19.9,0 -34.63,6.508 -44.19,19.519 -7.55,10.418 -11.32,23.571 -11.32,39.469 0,18.961 4.97,33.832 14.87,44.582 9.92,10.75 22.44,16.117 37.6,16.117 17.03,0 30.45,-5.636 40.29,-16.91 9.84,-11.289 14.55,-28.558 14.12,-51.84 h -75.94 c 0.22,-8.976 2.68,-15.957 7.38,-20.957 4.69,-4.98 10.55,-7.48 17.58,-7.48 4.77,0 8.78,1.281 12.03,3.847 3.27,2.563 5.73,6.704 7.39,12.403" /><path
         id="path44"
         style="fill:#2350a9;fill-opacity:1;fill-rule:nonzero;stroke:none"
         d="m 2628.68,419.871 h -30.31 v 58.34 c 0,12.34 -0.65,20.32 -1.92,23.937 -1.29,3.622 -3.38,6.454 -6.27,8.461 -2.89,2 -6.37,3.012 -10.43,3.012 -5.2,0 -9.88,-1.441 -14.01,-4.312 -4.14,-2.868 -6.97,-6.668 -8.51,-11.411 -1.53,-4.726 -2.3,-13.476 -2.3,-26.257 v -51.77 h -30.31 V 533.93 h 28.12 v -16.758 c 9.96,13.047 22.49,19.566 37.59,19.566 6.66,0 12.76,-1.207 18.26,-3.609 5.51,-2.399 9.69,-5.469 12.52,-9.199 2.83,-3.731 4.79,-7.961 5.9,-12.7 1.12,-4.73 1.67,-11.511 1.67,-20.332 v -71.027" /><path
         id="path46"
         style="fill:#2350a9;fill-opacity:1;fill-rule:nonzero;stroke:none"
         d="m 2718.11,533.93 v -24.059 h -20.63 v -46.152 c 0,-9.34 0.19,-14.789 0.58,-16.328 0.38,-1.551 1.26,-2.821 2.63,-3.832 1.38,-1 3.04,-1.508 5.01,-1.508 2.76,0 6.72,0.969 11.94,2.898 l 2.65,-23.379 c -6.99,-3.011 -14.9,-4.519 -23.73,-4.519 -5.43,0 -10.3,0.918 -14.65,2.75 -4.34,1.82 -7.53,4.199 -9.57,7.109 -2.03,2.899 -3.43,6.828 -4.21,11.781 -0.65,3.52 -0.96,10.629 -0.96,21.321 v 49.859 h -13.75 v 24.059 h 13.75 v 22.808 l 30.31,17.813 V 533.93 h 20.63" /><path
         id="path48"
         style="fill:#2350a9;fill-opacity:1;fill-rule:nonzero;stroke:none"
         d="m 2735.16,452.051 30.31,4.687 c 1.29,-5.828 3.9,-10.25 7.83,-13.277 3.94,-3.031 9.44,-4.531 16.52,-4.531 7.81,0 13.68,1.441 17.61,4.32 2.65,2.031 3.98,4.719 3.98,8.121 0,2.301 -0.73,4.219 -2.17,5.719 -1.52,1.449 -4.9,2.781 -10.16,4.012 -24.49,5.41 -40.02,10.339 -46.56,14.789 -9.08,6.168 -13.61,14.757 -13.61,25.73 0,9.918 3.91,18.25 11.76,24.988 7.86,6.75 20.03,10.129 36.52,10.129 15.7,0 27.36,-2.527 35,-7.578 7.63,-5.058 12.89,-12.531 15.78,-22.422 l -28.44,-5.308 c -1.23,4.429 -3.57,7.84 -7.01,10.199 -3.45,2.371 -8.36,3.551 -14.73,3.551 -8.04,0 -13.81,-1.11 -17.28,-3.36 -2.33,-1.582 -3.48,-3.629 -3.48,-6.148 0,-2.172 1,-4.012 3.02,-5.531 2.73,-2.012 12.18,-4.86 28.33,-8.539 16.15,-3.68 27.43,-8.18 33.84,-13.512 6.32,-5.399 9.5,-12.93 9.5,-22.578 0,-10.512 -4.38,-19.551 -13.11,-27.114 -8.75,-7.566 -21.67,-11.347 -38.79,-11.347 -15.53,0 -27.83,3.148 -36.89,9.418 -9.06,6.293 -14.98,14.801 -17.77,25.582" /><path
         id="path50"
         style="fill:#2350a9;fill-opacity:1;fill-rule:nonzero;stroke:none"
         d="m 3026.19,482.051 -22.02,58.437 -21.28,-58.437 z m 58.45,-62.18 h -34.32 l -13.62,35.617 h -63.48 l -12.98,-35.617 h -33.73 l 61.01,157.5 h 33.52 l 63.6,-157.5" /><path
         id="path52"
         style="fill:#2350a9;fill-opacity:1;fill-rule:nonzero;stroke:none"
         d="m 3136.68,419.871 h -30.31 V 533.93 h 28.12 v -16.219 c 4.81,7.66 9.12,12.738 12.97,15.258 3.83,2.511 8.18,3.769 13.07,3.769 6.88,0 13.51,-1.91 19.9,-5.718 l -9.22,-26.411 c -5.11,3.289 -9.86,4.942 -14.24,4.942 -4.26,0 -7.85,-1.172 -10.8,-3.492 -2.95,-2.34 -5.27,-6.547 -6.95,-12.637 -1.7,-6.094 -2.54,-18.863 -2.54,-38.281 v -35.27" /><path
         id="path54"
         style="fill:#2350a9;fill-opacity:1;fill-rule:nonzero;stroke:none"
         d="m 3267.96,486.43 c -0.22,8.879 -2.49,15.621 -6.81,20.25 -4.33,4.621 -9.59,6.941 -15.78,6.941 -6.64,0 -12.11,-2.449 -16.43,-7.32 -4.33,-4.871 -6.46,-11.5 -6.38,-19.871 z m -1.56,-30.629 30,-5 c -3.88,-10.992 -10.01,-19.371 -18.38,-25.121 -8.37,-5.758 -18.85,-8.629 -31.42,-8.629 -19.91,0 -34.65,6.508 -44.2,19.519 -7.55,10.418 -11.32,23.571 -11.32,39.469 0,18.961 4.96,33.832 14.88,44.582 9.9,10.75 22.44,16.117 37.59,16.117 17.02,0 30.45,-5.636 40.3,-16.91 9.83,-11.289 14.54,-28.558 14.11,-51.84 h -75.94 c 0.22,-8.976 2.68,-15.957 7.37,-20.957 4.71,-4.98 10.57,-7.48 17.58,-7.48 4.78,0 8.79,1.281 12.05,3.847 3.25,2.563 5.71,6.704 7.38,12.403" /><path
         id="path56"
         style="fill:#2350a9;fill-opacity:1;fill-rule:nonzero;stroke:none"
         d="m 3391.91,474.551 c -3.86,-1.301 -9.98,-2.84 -18.34,-4.641 -8.36,-1.789 -13.82,-3.558 -16.39,-5.281 -3.94,-2.809 -5.89,-6.367 -5.89,-10.68 0,-4.25 1.56,-7.91 4.71,-11.008 3.14,-3.089 7.14,-4.64 12.01,-4.64 5.43,0 10.6,1.801 15.54,5.39 3.64,2.739 6.04,6.079 7.18,10.039 0.78,2.59 1.18,7.52 1.18,14.79 z m -40.62,24.687 -27.19,5 c 3.08,11.051 8.38,19.223 15.9,24.532 7.53,5.308 18.71,7.968 33.54,7.968 13.47,0 23.51,-1.597 30.1,-4.777 6.59,-3.211 11.24,-7.262 13.92,-12.172 2.69,-4.91 4.04,-13.937 4.04,-27.07 l -0.31,-35.297 c 0,-10.043 0.48,-17.461 1.44,-22.223 0.97,-4.769 2.78,-9.879 5.42,-15.328 h -29.99 c -0.8,1.969 -1.75,4.899 -2.91,8.777 -0.49,1.774 -0.86,2.93 -1.06,3.5 -5.16,-5.027 -10.66,-8.808 -16.53,-11.328 -5.87,-2.511 -12.13,-3.769 -18.79,-3.769 -11.74,0 -21,3.199 -27.76,9.578 -6.75,6.391 -10.13,14.473 -10.13,24.23 0,6.45 1.53,12.211 4.61,17.27 3.08,5.062 7.4,8.941 12.95,11.633 5.56,2.679 13.57,5.047 24.03,7.058 14.11,2.649 23.89,5.121 29.34,7.418 v 3.051 c 0,5.883 -1.44,10.07 -4.32,12.582 -2.88,2.5 -8.32,3.75 -16.32,3.75 -5.4,0 -9.61,-1.07 -12.64,-3.191 -3.02,-2.129 -5.48,-5.86 -7.34,-11.192" /><path
         id="path58"
         style="fill:#2350a9;fill-opacity:1;fill-rule:nonzero;stroke:none"
         d="M 1081.05,1196.24 H 874.668 c 0,33.87 -3.977,56.6 -11.895,68.17 -12.285,17.12 -46.179,25.69 -101.66,25.69 -53.886,0 -89.597,-4.93 -107.031,-14.8 -17.422,-9.9 -26.144,-31.43 -26.144,-64.58 0,-30.01 7.726,-49.77 23.207,-59.24 11.082,-6.72 25.742,-10.67 44,-11.85 l 41.625,-2.94 c 89.199,-5.92 144.91,-10.09 167.125,-12.46 70.546,-7.11 121.685,-25.87 153.415,-56.27 24.97,-23.72 39.86,-54.72 44.61,-92.995 2.78,-22.902 4.16,-48.82 4.16,-77.61 0,-66.355 -6.33,-114.957 -19.01,-145.753 -22.98,-56.512 -74.6,-92.204 -154.922,-107.192 -33.652,-6.34 -85.128,-9.512 -154.367,-9.512 -115.586,0 -196.133,6.883 -241.609,20.711 -55.82,16.942 -92.617,51.262 -110.43,102.942 -9.922,28.769 -14.836,76.679 -14.836,143.746 h 206.379 c 0,-7.481 0.028,-13.192 0.028,-17.137 0,-35.789 10.285,-58.808 30.824,-69.058 14.226,-7.071 31.406,-10.782 51.597,-11.223 h 75.879 c 38.711,0 63.43,1.98 74.082,5.961 18.977,7.461 31.426,19.469 37.375,36.09 3.164,10.23 4.727,23.472 4.727,39.675 0,36.29 -13.242,58.368 -39.695,66.29 -9.895,3.125 -55.911,7.488 -138.047,13.015 -65.969,4.707 -111.789,9.238 -137.446,13.629 -67.566,12.637 -112.593,38.631 -135.066,78.091 -19.758,33.53 -29.629,84.26 -29.629,152.12 0,51.68 5.332,93.12 16.008,124.29 10.683,31.18 27.891,54.85 51.641,71.03 34.792,24.86 79.304,39.45 133.496,43.81 45.093,3.93 95.117,5.94 150.132,5.94 86.622,0 148.352,-4.98 185.149,-14.85 89.81,-24.13 134.71,-91.72 134.71,-202.79 0,-9.11 -0.67,-22.73 -2,-40.94" /><path
         id="path60"
         style="fill:#2350a9;fill-opacity:1;fill-rule:nonzero;stroke:none"
         d="m 2210.45,1038.93 h 138.3 c 43.85,1.58 70.52,4.95 80.12,10.23 13.11,7.2 21.91,21.64 26.29,43.29 2.8,14.41 4.2,35.84 4.2,64.28 0,34.88 -2.78,60.72 -8.37,77.59 -7.98,23.64 -27.09,38.04 -57.36,43.27 -5.98,0.79 -20.31,1.21 -43.01,1.21 H 2210.45 Z M 1988.61,634.898 v 824.282 h 413.31 c 56.69,0 99.95,-4.63 129.67,-13.88 67.98,-21.3 113.59,-64.91 136.95,-130.82 12.06,-34.59 18.09,-86.67 18.09,-156.21 0,-83.61 -6.69,-143.7 -19.92,-180.286 -26.51,-72.336 -81.08,-114.007 -163.48,-124.804 -9.69,-1.621 -50.92,-3.071 -123.69,-4.231 l -36.83,-1.23 H 2210.45 V 634.898 h -221.84" /><path
         id="path62"
         style="fill:#2350a9;fill-opacity:1;fill-rule:nonzero;stroke:none"
         d="M 3116.12,937.941 3012.18,1295.25 2911.31,937.941 Z m 44.06,-160.582 H 2863.57 L 2823.72,634.898 H 2594.2 l 247.66,824.282 h 334.64 l 250.7,-824.282 h -224.7 l -42.32,142.461" /><path
         id="path64"
         style="fill:#fbbc09;fill-opacity:1;fill-rule:nonzero;stroke:none"
         d="m 1682.42,1343.21 c 91.5,0 173.16,-42.15 226.84,-108.17 l 47.82,102.53 c -74.79,70.69 -176.58,114.27 -288.85,114.27 -174.8,0 -324.33,-105.57 -385.7,-255.01 h -93.25 l -55.06,-118.04 h 119.96 c -0.9,-10.95 -1.48,-21.91 -1.48,-33.09 0,-13.53 0.7,-26.9 2.04,-40.11 h -60.29 L 1139.4,887.512 h 145.99 c 63.12,-145.66 210.78,-247.922 382.84,-247.922 86.71,0 167.17,25.98 233.79,70.359 V 854.66 c -53.65,-61.082 -132.12,-99.68 -219.6,-99.68 -102.26,0 -192.21,52.731 -244.59,132.532 h 305.71 l 55.05,118.078 h -405.74 c -2.09,14.21 -3.21,28.73 -3.21,43.52 0,10 0.52,19.9 1.48,29.68 h 441.59 l 55.05,118.04 h -458.45 c 50.7,87.5 145.05,146.38 253.11,146.38" /><path
         id="path66"
         style="fill:#2350a9;fill-opacity:1;fill-rule:nonzero;stroke:none"
         d="m 1429.31,1193.29 h 458.45 l -3.21,5.04 -55.03,-118.05 3.19,2.04 h -441.59 -3.19 l -0.34,-3.21 c -0.99,-9.96 -1.49,-20.06 -1.49,-30 0,-14.61 1.1,-29.44 3.25,-44.06 l 0.46,-3.01 h 3.04 405.74 l -3.19,5.03 -55.06,-118.054 3.2,2.043 h -305.71 -6.57 l 3.61,-5.461 c 55.09,-84.02 147.64,-134.11 247.55,-134.11 84.93,0 165.95,36.731 222.28,100.84 l -6.22,2.332 V 709.949 l 1.56,2.922 c -68.5,-45.609 -148.64,-69.73 -231.81,-69.73 -165.91,0 -314.9,96.48 -379.57,245.797 l -0.94,2.121 h -2.33 -145.99 l 3.24,-5.059 55.03,118.09 -3.22,-2.05 h 60.29 3.9 l -0.39,3.91 c -1.33,13.34 -2.02,26.74 -2.02,39.75 0,10.01 0.49,20.74 1.48,32.78 l 0.31,3.84 h -3.84 -119.96 l 3.19,-5.05 55.07,118.07 -3.2,-2.05 h 93.25 2.38 l 0.89,2.19 c 30.3,73.78 81.84,136.68 149.02,181.95 68.81,46.34 149.54,70.84 233.41,70.84 107.41,0 209.11,-40.2 286.41,-113.26 l -0.79,4.08 -47.79,-102.56 5.95,0.74 c -56.6,69.58 -140.26,109.49 -229.59,109.49 -105.08,0 -203.22,-56.77 -256.2,-148.16 l -3.08,-5.31 z m 253.11,146.39 c 87.19,0 168.86,-38.97 224.08,-106.88 l 3.57,-4.39 2.42,5.12 47.8,102.54 1.07,2.32 -1.84,1.77 c -78.61,74.3 -182.06,115.22 -291.29,115.22 -85.29,0 -167.37,-24.93 -237.37,-72.09 -68.35,-46.03 -120.77,-110.06 -151.58,-185.12 l 3.25,2.21 h -93.25 -2.27 l -0.95,-2.05 -55.04,-118.05 -2.35,-5.05 h 5.55 119.96 l -3.53,3.84 c -1.01,-12.25 -1.49,-23.14 -1.49,-33.37 0,-13.25 0.67,-26.88 2.04,-40.46 l 3.54,3.87 h -60.29 -2.24 l -0.95,-2.04 -55.07,-118.054 -2.33,-5.039 h 5.54 145.99 l -3.24,2.14 c 65.81,-151.898 217.36,-250.066 386.08,-250.066 84.58,0 166.08,24.519 235.75,70.937 l 1.57,1.051 v 1.91 144.711 9.406 l -6.19,-7.07 c -54.97,-62.566 -134.04,-98.445 -216.94,-98.445 -97.53,0 -187.86,48.949 -241.64,130.926 l -2.95,-5.5 h 305.71 2.26 l 0.95,2.023 55.06,118.09 2.35,5.02 h -5.57 -405.74 l 3.52,-3.01 c -2.1,14.29 -3.18,28.75 -3.18,43.01 0,9.71 0.49,19.57 1.47,29.32 l -3.54,-3.2 h 441.59 2.29 l 0.93,2.04 55.05,118.07 2.37,5.04 h -5.59 -458.45 l 3.04,-5.33 c 51.7,89.21 147.53,144.63 250.07,144.63" /></g></g></svg>